<svg xmlns="http://www.w3.org/2000/svg" version="1.1" xmlns:xlink="http://www.w3.org/1999/xlink" xmlns:svgjs="http://svgjs.dev/svgjs" width="1440" height="800" preserveAspectRatio="none" viewBox="0 0 1440 800"><g mask="url(&quot;#SvgjsMask1025&quot;)" fill="none"><path d="M835.67 690.21L881.35 690.21L881.35 735.89L835.67 735.89z" stroke="#e73635"></path><path d="M1160.23 36.55 a61.45 61.45 0 1 0 122.9 0 a61.45 61.45 0 1 0 -122.9 0z" fill="#037b0b"></path><path d="M22.98 657.91L49.36 657.91L49.36 732.81L22.98 732.81z" stroke="#d3b714"></path><path d="M1378.18 143.33L1433.32 143.33L1433.32 198.47L1378.18 198.47z" stroke="rgba(172, 16, 143, 1)"></path><path d="M1416.5 223.71L1472.5 223.71L1472.5 298.51L1416.5 298.51z" stroke="#e73635"></path><path d="M372 718.72L406.17 718.72L406.17 746.77L372 746.77z" stroke="#d3b714"></path><path d="M996.14 449.13a54.18 54.18 0 1 0-9.65-107.93z" stroke="rgba(17, 30, 172, 1)"></path><path d="M549.77 290.49L569.54 290.49L569.54 310.26L549.77 310.26z" fill="rgba(224, 140, 58, 1)"></path><path d="M185.31 415.71a76.68 76.68 0 1 0 44.11 146.88z" fill="#e73635"></path><path d="M1243.52 540.46L1292.89 540.46L1292.89 610.66L1243.52 610.66z" fill="rgba(224, 140, 58, 1)"></path><path d="M545.27 499.91a6.8 6.8 0 1 0 8.58-10.56z" fill="#037b0b"></path><path d="M719.8 246.75L759.99 246.75L759.99 286.94L719.8 286.94z" stroke="#037b0b"></path><path d="M1147.14 218.27 a0.53 0.53 0 1 0 1.06 0 a0.53 0.53 0 1 0 -1.06 0z" stroke="rgba(17, 30, 172, 1)"></path><path d="M823.12 96.79a38.96 38.96 0 1 0-45.68-63.13z" stroke="rgba(32, 198, 171, 1)"></path><path d="M530.82 707.2L579.67 707.2L579.67 777.46L530.82 777.46z" stroke="rgba(172, 16, 143, 1)"></path><path d="M22.16 609.88L80.49 609.88L80.49 632.44L22.16 632.44z" fill="#d3b714"></path><path d="M375.62 321.49L412.49 321.49L412.49 358.36L375.62 358.36z" fill="rgba(224, 140, 58, 1)"></path><path d="M59.67 72.36L86.13 72.36L86.13 123.72L59.67 123.72z" fill="rgba(224, 140, 58, 1)"></path><path d="M895.89 517.96L969.38 517.96L969.38 591.45L895.89 591.45z" stroke="#037b0b"></path><path d="M796.56 669.5a58.41 58.41 0 1 0 113.01 29.6z" fill="rgba(224, 140, 58, 1)"></path><path d="M541.48 560.58a21.24 21.24 0 1 0-41.7-8.12z" fill="#037b0b"></path><path d="M1062.85 721.99a41.7 41.7 0 1 0 82.3 13.44z" fill="#e73635"></path><path d="M256.86 640.68L297.75 640.68L297.75 681.57L256.86 681.57z" fill="#d3b714"></path></g><defs><mask id="SvgjsMask1025"><rect width="1440" height="800" fill="#ffffff"></rect></mask></defs></svg>